Coordinates
nRows=165
nColumns=2
inDegrees=yes
endheader
time	ankle_angle_r	
7.43702	  0.183273	
7.49952	  0.195174	
7.56202	  0.193941	
7.62451	  0.195490	
7.68701	  0.230746	
7.7495	  0.258648	
7.812	  0.262322	
7.8745	  0.231132	
7.93699	  0.182610	
7.99949	  0.194432	
8.06198	  0.228263	
8.12448	  0.253196	
8.18698	  0.293206	
8.24947	  0.316286	
8.31197	  0.321313	
8.37446	  0.292088	
8.43696	  0.238325	
8.49946	  0.202670	
8.56195	  0.171842	
8.62445	  0.195593	
8.68694	  0.249825	
8.74944	  0.258596	
8.81194	  0.271592	
8.87443	  0.257423	
8.93693	  0.203242	
8.99942	  0.173176	
9.06192	  0.158096	
9.12442	  0.181377	
9.18691	  0.216929	
9.24941	  0.218036	
9.3119	  0.221858	
9.3744	  0.214019	
9.4369	  0.186233	
9.49939	  0.168928	
9.56189	  0.182681	
9.62438	  0.230041	
9.68688	  0.260444	
9.74938	  0.257361	
9.81187	  0.222855	
9.87437	  0.192226	
9.93686	  0.217149	
9.99936	  0.226031	
10.0619	  0.219964	
10.1244	  0.236006	
10.1868	  0.219100	
10.2493	  0.226205	
10.3118	  0.246451	
10.3743	  0.204304	
10.4368	  0.180587	
10.4993	  0.193900	
10.5618	  0.214834	
10.6243	  0.248148	
10.6868	  0.276204	
10.7493	  0.301143	
10.8118	  0.274382	
10.8743	  0.215204	
10.9368	  0.210139	
10.9993	  0.218127	
11.0618	  0.221132	
11.1243	  0.237885	
11.1868	  0.247913	
11.2493	  0.257277	
11.3118	  0.238864	
11.3743	  0.188319	
11.4368	  0.169729	
11.4993	  0.218931	
11.5618	  0.276134	
11.6243	  0.259146	
11.6868	  0.230181	
11.7492	  0.220224	
11.8117	  0.167032	
11.8742	  0.145083	
11.9367	  0.183993	
11.9992	  0.223832	
12.0617	  0.275691	
12.1242	  0.299683	
12.1867	  0.275352	
12.2492	  0.234340	
12.3117	  0.195799	
12.3742	  0.191367	
12.4367	  0.173892	
12.4992	  0.162070	
12.5617	  0.221635	
12.6242	  0.286382	
12.6867	  0.301323	
12.7492	  0.247337	
12.8117	  0.196619	
12.8742	  0.207815	
12.9367	  0.191599	
12.9992	  0.191753	
13.0617	  0.258565	
13.1242	  0.302176	
13.1867	  0.296836	
13.2492	  0.239820	
13.3116	  0.177230	
13.3741	  0.173652	
13.4366	  0.194709	
13.4991	  0.218708	
13.5616	  0.240375	
13.6241	  0.240324	
13.6866	  0.216157	
13.7491	  0.186417	
13.8116	  0.185741	
13.8741	  0.201564	
13.9366	  0.228783	
13.9991	  0.258100	
14.0616	  0.254821	
14.1241	  0.253622	
14.1866	  0.234602	
14.2491	  0.182968	
14.3116	  0.174274	
14.3741	  0.190322	
14.4366	  0.216586	
14.4991	  0.252240	
14.5616	  0.257908	
14.6241	  0.273455	
14.6866	  0.267297	
14.7491	  0.216008	
14.8116	  0.202782	
14.874	  0.215941	
14.9365	  0.250606	
14.999	  0.292919	
15.0615	  0.293536	
15.124	  0.288521	
15.1865	  0.252333	
15.249	  0.195149	
15.3115	  0.196070	
15.374	  0.218515	
15.4365	  0.240162	
15.499	  0.255086	
15.5615	  0.240780	
15.624	  0.210969	
15.6865	  0.162241	
15.749	  0.138271	
15.8115	  0.168711	
15.874	  0.213059	
15.9365	  0.241018	
15.999	  0.237356	
16.0615	  0.235860	
16.124	  0.219153	
16.1865	  0.165505	
16.249	  0.162208	
16.3115	  0.195497	
16.374	  0.222739	
16.4364	  0.267166	
16.4989	  0.293885	
16.5614	  0.282508	
16.6239	  0.222983	
16.6864	  0.156306	
16.7489	  0.148090	
16.8114	  0.155176	
16.8739	  0.181396	
16.9364	  0.233817	
16.9989	  0.256601	
17.0614	  0.274873	
17.1239	  0.279408	
17.1864	  0.222520	
17.2489	  0.148416	
17.3114	  0.148338	
17.3739	  0.218915	
17.4364	  0.247519	
17.4989	  0.229114	
17.5614	  0.198150	
17.6239	  0.167969	
17.6864	  0.213160	
